<?xml version="1.0" encoding="utf-8"?>
<!-- Generator: Adobe Illustrator 15.0.0, SVG Export Plug-In . SVG Version: 6.00 Build 0)  -->
<!DOCTYPE svg PUBLIC "-//W3C//DTD SVG 1.1//EN" "http://www.w3.org/Graphics/SVG/1.1/DTD/svg11.dtd">
<svg version="1.1" id="Layer_1" xmlns="http://www.w3.org/2000/svg" xmlns:xlink="http://www.w3.org/1999/xlink" x="0px" y="0px"
	 width="149.314px" height="131.403px" viewBox="0 0 149.314 131.403" enable-background="new 0 0 149.314 131.403"
	 xml:space="preserve">
<g>
	<path fill="#925F41" d="M98.376,121.437c0,0-0.093-0.183-0.267-0.525c-0.155-0.337-0.443-0.81-0.721-1.442
		c-0.289-0.625-0.664-1.394-0.987-2.328c-0.327-0.939-0.653-2.031-0.782-3.406c-0.064-0.691-0.062-1.45,0.095-2.34
		c0.168-0.878,0.497-1.905,1.306-2.907l0.146-0.184l0.075-0.092l0.038-0.045c0.089-0.08-0.179,0.143,0.209-0.184l0.01-0.013
		l0.166-0.181l0.171-0.181c0.06-0.06,0.078-0.102,0.285-0.241c0.326-0.229,0.68-0.447,1.045-0.64
		c0.36-0.188,0.562-0.251,0.863-0.373c1.111-0.431,2.145-0.543,3.081-0.599c1.89-0.098,3.547,0.132,5.072,0.406
		c0.771,0.146,1.493,0.258,2.165,0.409c0.326,0.064,0.65,0.127,0.919,0.169c0.153,0.029,0.263,0.037,0.368,0.047l0.161,0.021
		l0.01,0.001c0.086,0.005-0.709-0.039-0.364-0.019l0.033-0.001h0.071l0.141-0.002l1.121,0.027l0.281,0.008l0.115-0.032
		c0.074-0.02,0.149-0.034,0.226-0.044c0.251,0.004,0.749-0.132,1.188-0.206c0.838-0.291,1.687-0.609,2.399-1.118
		c0.667-0.517,1.342-1.079,1.754-1.747c0.418-0.653,0.785-1.376,0.863-2.146c0.027-0.189,0.08-0.394,0.094-0.589
		c-0.012-0.195-0.026-0.388-0.028-0.589c0.03-0.416-0.079-0.793-0.167-1.176c-0.112-0.799-0.492-1.454-0.707-2.083
		c-0.619-1.117-1.035-1.888-1.035-1.888s0.199,0.034,0.568,0.137c0.354,0.117,0.94,0.228,1.609,0.535
		c0.613,0.378,1.528,0.724,2.293,1.538c0.419,0.375,0.844,0.809,1.188,1.376c0.191,0.271,0.37,0.564,0.556,0.868
		c0.155,0.315,0.278,0.666,0.42,1.02c0.571,1.426,0.68,3.198,0.346,4.984c-0.337,1.805-1.256,3.516-2.496,5.03
		c-1.27,1.49-2.949,2.676-4.832,3.485c-0.98,0.328-1.879,0.721-3.121,0.839l-0.883,0.112l-0.435,0.043l-0.283,0.002l-1.119,0.004
		l-0.14-0.004l-0.528-0.027l-0.396-0.059c-0.264-0.037-0.523-0.078-0.734-0.125c-0.469-0.088-0.872-0.184-1.273-0.277
		c-0.782-0.176-1.499-0.42-2.164-0.599c-1.337-0.386-2.535-0.732-3.449-0.913c-0.464-0.104-0.822-0.122-1.004-0.174
		c-0.021-0.015-0.151-0.021-0.091-0.059c0.065-0.045,0.122-0.117,0.15-0.202c0.052-0.079-0.053-0.011-0.121,0.031l-0.217,0.12
		l-0.219,0.116l-0.014,0.005c0.382-0.319,0.104-0.089,0.189-0.158h-0.001l-0.009-0.005l-0.015-0.007
		c-0.232-0.183-0.813,0.547-1.13,1.39c-0.354,0.856-0.599,1.826-0.815,2.703c-0.224,0.917-0.418,1.715-0.578,2.37
		c-0.147,0.67-0.346,1.222-0.455,1.583C98.45,121.246,98.376,121.437,98.376,121.437"/>
	<path fill="#FFFFFF" d="M100.093,67.883H51.134c-3.558,7.603-5.659,16.922-5.659,27.004c0,14.813,4.53,27.992,11.572,36.472h11.928
		c-0.333-1.293-0.523-2.703-0.523-4.186c0-6.175,3.215-11.182,7.182-11.182c3.968,0,7.183,5.007,7.183,11.182
		c0,1.482-0.189,2.893-0.524,4.186h11.889c7.04-8.479,11.572-21.658,11.572-36.472C105.753,84.805,103.652,75.485,100.093,67.883"/>
	<path d="M71.076,131.403c0.009-0.154,0.023-0.304,0.023-0.459c0-5.141-4.168-9.309-9.308-9.309c-5.141,0-9.308,4.168-9.308,9.309
		c0,0.155,0.015,0.305,0.022,0.459H71.076z"/>
	<path d="M99.392,131.403c0.009-0.154,0.022-0.304,0.022-0.459c0-5.141-4.168-9.309-9.308-9.309c-5.142,0-9.309,4.168-9.309,9.309
		c0,0.155,0.014,0.305,0.023,0.459H99.392z"/>
	<path fill="#925F41" d="M115.631,36.962C114.417,16.818,96.756,0.838,75.144,0.838c-21.971,0-39.85,16.514-40.528,37.125
		c-4.954,7.53-4.998,17.554-4.998,27.205c0,22.093,16.014,34.454,34.007,43.154c3.879,1.875,7.31,3.896,11.834,3.896
		c3.582,0,7.61-2.364,10.688-3.896c20.64-10.292,34.538-21.111,34.538-44.135C120.685,54.106,120.999,44.692,115.631,36.962"/>
	<path d="M72.032,97.365c-0.156,3.908,0.185,7.82,0,11.728c-0.222,4.63,6.958,4.608,7.178,0c0.188-3.907-0.152-7.819,0-11.728
		C79.393,92.733,72.213,92.749,72.032,97.365"/>
	<path fill="#221F1F" d="M99.336,36.825c1.407,2.624,0.423,5.888-2.201,7.297c-2.62,1.405-5.888,0.422-7.294-2.202
		c-1.407-2.623-0.421-5.887,2.199-7.294C94.665,33.218,97.928,34.205,99.336,36.825"/>
	<path fill="#FFFFFF" d="M96.264,37.443c0.265,0.491,0.077,1.106-0.413,1.369c-0.493,0.265-1.105,0.079-1.37-0.412
		c-0.264-0.493-0.08-1.104,0.414-1.37C95.387,36.766,96,36.951,96.264,37.443"/>
	<g opacity="0.2">
		<g>
			<defs>
				<rect id="SVGID_1_" x="83.084" y="28.983" width="21.899" height="21.899"/>
			</defs>
			<clipPath id="SVGID_2_">
				<use xlink:href="#SVGID_1_"  overflow="visible"/>
			</clipPath>
			<path clip-path="url(#SVGID_2_)" d="M104.983,39.934c0,6.046-4.9,10.948-10.948,10.948c-6.047,0-10.951-4.902-10.951-10.948
				c0-6.047,4.904-10.951,10.951-10.951C100.083,28.983,104.983,33.887,104.983,39.934"/>
		</g>
	</g>
	<path fill="#221F1F" d="M60.293,36.825c1.406,2.624,0.422,5.888-2.2,7.297c-2.622,1.405-5.889,0.422-7.294-2.202
		c-1.407-2.623-0.423-5.887,2.2-7.294C55.621,33.218,58.885,34.205,60.293,36.825"/>
	<path fill="#FFFFFF" d="M57.221,37.443c0.265,0.491,0.078,1.106-0.412,1.369c-0.494,0.265-1.106,0.079-1.37-0.412
		c-0.264-0.493-0.08-1.104,0.412-1.37C56.344,36.766,56.956,36.951,57.221,37.443"/>
	<g opacity="0.2">
		<g>
			<defs>
				<rect id="SVGID_3_" x="44.04" y="28.983" width="21.901" height="21.899"/>
			</defs>
			<clipPath id="SVGID_4_">
				<use xlink:href="#SVGID_3_"  overflow="visible"/>
			</clipPath>
			<path clip-path="url(#SVGID_4_)" d="M65.941,39.934c0,6.046-4.902,10.948-10.949,10.948c-6.048,0-10.952-4.902-10.952-10.948
				c0-6.047,4.904-10.951,10.952-10.951C61.039,28.983,65.941,33.887,65.941,39.934"/>
		</g>
	</g>
	<polygon fill="#E1E2E3" points="68.881,33.276 52.483,87.949 98.486,88.423 81.208,33.385 	"/>
	<path d="M52.401,90.393c0.651,11.889,23.229,14.632,23.229,14.632s22.575-2.743,23.227-14.632
		C99.514,78.513,51.748,78.513,52.401,90.393"/>
	<path fill="#FFFFFF" d="M86.147,85.874c0,0,8.621,1.614,7.185,6.465C93.332,92.339,98.002,85.334,86.147,85.874"/>
	<path fill="#E1E2E3" d="M81.352,34.043c0,1.709-2.842,3.095-6.348,3.095c-3.506,0-6.229-1.572-6.229-3.28s2.724-2.912,6.229-2.912
		C78.51,30.947,81.352,32.335,81.352,34.043"/>
	<path fill="#E1E2E3" d="M75.02,3.367c-7.029,0.804-6.348,8.244-6.348,8.244c3.557,10.056,0.209,21.666,0.209,21.666l6.139-1.277
		l6.142,1.277c0,0-3.349-11.61,0.208-21.666C81.37,11.61,82.05,4.171,75.02,3.367"/>
	<path fill="#6F482F" d="M22.67,4.267c0,0,14.991,10.433,17.142,16.089L53.325,8.763c0,0-1.744-3.252-4.569-5.396L22.67,4.267z"/>
	<path fill="#925F41" d="M49.56,4.285c-3.482-4.706-11.785-4.491-16.96-4.275c-4.154,0.175-12.103,0.93-13.59,5.808
		c-0.051,0.116-0.095,0.241-0.123,0.385c-1.142,5.883,1.13,10.874,3.28,16.268c1.085,2.722,3.169,8.006,6.921,7.625
		c3.181-0.324,5.874-7.563,7.125-9.82c1.528-2.759,2.929-5.573,4.572-8.266c1.763-2.886,5.264-4.175,8.188-5.489
		C49.726,6.184,50.049,4.949,49.56,4.285"/>
	<path fill="#6F482F" d="M126.816,4.267c0,0-14.993,10.433-17.143,16.089L96.16,8.763c0,0,1.744-3.252,4.57-5.396L126.816,4.267z"/>
	<path fill="#925F41" d="M99.926,4.285c3.481-4.706,11.783-4.491,16.959-4.275c4.154,0.175,12.104,0.93,13.591,5.808
		c0.052,0.116,0.096,0.241,0.123,0.385c1.14,5.883-1.13,10.874-3.28,16.268c-1.085,2.722-3.169,8.006-6.923,7.625
		c-3.181-0.324-5.872-7.563-7.124-9.82c-1.527-2.759-2.927-5.573-4.571-8.266c-1.763-2.886-5.264-4.175-8.188-5.489
		C99.759,6.184,99.436,4.949,99.926,4.285"/>
	<path fill="#925F41" d="M55.794,115.011c-0.572-1.308-1.636-1.225-2.617-2.125c-0.899-0.817-0.98-1.962-1.227-3.024
		c-0.713-2.537-3.115-2.831-5.271-1.805c0.817,4.348,2.034,8.434,3.592,12.154c0.656-0.173,1.296-0.423,1.843-0.621
		C54.24,118.936,56.938,117.79,55.794,115.011"/>
	<g opacity="0.4">
		<g>
			<defs>
				<rect id="SVGID_5_" x="18.578" y="-0.08" width="58.525" height="131.483"/>
			</defs>
			<clipPath id="SVGID_6_">
				<use xlink:href="#SVGID_5_"  overflow="visible"/>
			</clipPath>
			<path clip-path="url(#SVGID_6_)" d="M77.102,0.909c-0.651-0.029-1.301-0.07-1.961-0.07c-8.402,0-16.2,2.421-22.673,6.557
				c-0.779-1.139-2.059-2.772-3.715-4.029h-0.007C44.915-0.386,37.407-0.191,32.596,0.01c-4.153,0.174-12.104,0.929-13.589,5.807
				c-0.053,0.116-0.097,0.241-0.125,0.385c-1.141,5.883,1.129,10.874,3.279,16.268c1.085,2.722,3.17,8.005,6.923,7.625
				c3.179-0.324,5.872-7.564,7.124-9.82c0.555-1,1.092-2.007,1.63-3.015c0.917,1.114,1.616,2.17,1.97,3.095l0.004-0.004
				c-3.125,5.231-4.991,11.223-5.202,17.611c-4.952,7.531-4.997,17.554-4.997,27.204c0,14.089,6.516,24.215,15.899,31.963
				c0.118,3.774,0.524,7.43,1.197,10.914c-0.013,0.005-0.025,0.007-0.036,0.013c0.818,4.348,2.035,8.433,3.593,12.154
				c0.034-0.01,0.066-0.021,0.102-0.032c0.958,2.253,2.045,4.365,3.236,6.325c-0.718,1.319-1.125,2.834-1.125,4.439
				c0,0.156,0.014,0.306,0.021,0.46h18.572c0.008-0.154,0.023-0.304,0.023-0.46c0-2.426-0.938-4.628-2.46-6.285
				c0.736-4.963,3.584-8.668,6.994-8.668c0.504,0,0.996,0.09,1.471,0.245V0.909z"/>
		</g>
	</g>
</g>
</svg>
