<?xml version="1.0" encoding="utf-8"?>
<!-- Generator: Adobe Illustrator 15.0.0, SVG Export Plug-In . SVG Version: 6.00 Build 0)  -->
<!DOCTYPE svg PUBLIC "-//W3C//DTD SVG 1.1//EN" "http://www.w3.org/Graphics/SVG/1.1/DTD/svg11.dtd">
<svg version="1.1" id="Layer_1" xmlns="http://www.w3.org/2000/svg" xmlns:xlink="http://www.w3.org/1999/xlink" x="0px" y="0px"
	 width="157.358px" height="131.522px" viewBox="0 0 157.358 131.522" enable-background="new 0 0 157.358 131.522"
	 xml:space="preserve">
<g>
	<path fill="#606F98" d="M105.692,61.091H51.37c-3.947,8.437-6.278,18.778-6.278,29.961c0,16.438,5.027,31.062,12.84,40.469h13.236
		c-0.373-1.436-0.583-2.999-0.583-4.643c0-6.853,3.545-8.519,7.947-8.519s7.992,1.666,7.992,8.519c0,1.644-0.209,3.207-0.581,4.643
		h13.189c7.811-9.407,12.84-24.03,12.84-40.469C111.971,79.869,109.639,69.528,105.692,61.091"/>
	<path fill="#6E7FAD" d="M45.212,16.081c-3.415-9.904-9.22-16.393-20.49-16.051C11.745,0.371,2.525,16.081,0.476,27.35
		c-2.732,14.344,6.83,22.198,15.367,32.102c7.514,9.222,6.49,17.759,9.221,28.344c2.049,7.855,8.88,12.636,17.075,10.929
		c12.294-2.39,8.195-15.368,6.829-24.246c-3.756-20.148-3.415-39.274-3.415-59.421L45.212,16.081z"/>
	<path fill="#6E7FAD" d="M112.146,16.081c3.415-9.904,9.221-16.393,20.49-16.051c12.977,0.341,22.198,16.051,24.246,27.32
		c2.731,14.344-6.83,22.198-15.366,32.102c-7.514,9.222-6.489,17.759-9.222,28.344c-2.049,7.855-8.879,12.636-17.074,10.929
		c-12.295-2.39-8.195-15.368-6.831-24.246c3.757-20.148,3.416-39.274,3.416-59.421L112.146,16.081z"/>
	<path fill="#8092C1" d="M117.313,75.408c-5.16,18.236-20.635,28.179-38.782,28.936c-18.148-0.757-33.62-10.699-38.783-28.936
		c-4.837-7.257-11.384-20.619-11.384-29.895c0-25.033,24.338-44.525,50.167-45.512c25.829,0.987,50.166,20.479,50.166,45.512
		C128.697,54.79,122.151,68.151,117.313,75.408"/>
	<g opacity="0.2">
		<g>
			<defs>
				<rect id="SVGID_1_" x="98.29" y="44.262" width="13.388" height="13.389"/>
			</defs>
			<clipPath id="SVGID_2_">
				<use xlink:href="#SVGID_1_"  overflow="visible"/>
			</clipPath>
			<path clip-path="url(#SVGID_2_)" d="M111.677,50.957c0,3.694-2.996,6.694-6.693,6.694c-3.696,0-6.693-3-6.693-6.694
				c0-3.697,2.997-6.694,6.693-6.694C108.681,44.262,111.677,47.259,111.677,50.957"/>
		</g>
	</g>
	<path fill="#221F1F" d="M109.873,51.068c0,2.7-2.188,4.891-4.887,4.891c-2.701,0-4.892-2.191-4.892-4.891
		c0-2.7,2.19-4.891,4.892-4.891C107.685,46.178,109.873,48.368,109.873,51.068"/>
	<path fill="#FFFFFF" d="M107.576,50.957c0,0.624-0.505,1.128-1.129,1.128c-0.626,0-1.129-0.504-1.129-1.128
		c0-0.625,0.503-1.129,1.129-1.129C107.071,49.828,107.576,50.332,107.576,50.957"/>
	<g opacity="0.2">
		<g>
			<defs>
				<rect id="SVGID_3_" x="45.68" y="44.262" width="13.388" height="13.389"/>
			</defs>
			<clipPath id="SVGID_4_">
				<use xlink:href="#SVGID_3_"  overflow="visible"/>
			</clipPath>
			<path clip-path="url(#SVGID_4_)" d="M45.68,50.957c0,3.694,2.996,6.694,6.693,6.694s6.694-3,6.694-6.694
				c0-3.697-2.997-6.694-6.694-6.694S45.68,47.259,45.68,50.957"/>
		</g>
	</g>
	<path fill="#221F1F" d="M47.485,51.068c0,2.7,2.188,4.891,4.889,4.891c2.701,0,4.89-2.191,4.89-4.891c0-2.7-2.189-4.891-4.89-4.891
		C49.672,46.178,47.485,48.368,47.485,51.068"/>
	<path fill="#FFFFFF" d="M49.783,50.957c0,0.624,0.505,1.128,1.129,1.128c0.625,0,1.129-0.504,1.129-1.128
		c0-0.625-0.504-1.129-1.129-1.129C50.288,49.828,49.783,50.332,49.783,50.957"/>
	<polygon fill="#83A2BB" points="59.833,125.787 59.833,131.522 62.117,131.522 	"/>
	<polygon fill="#83A2BB" points="65.032,125.787 65.032,131.522 67.316,131.522 	"/>
	<polygon fill="#83A2BB" points="97.526,125.787 97.526,131.522 95.242,131.522 	"/>
	<polygon fill="#83A2BB" points="92.326,125.787 92.326,131.522 90.042,131.522 	"/>
	<path fill="#E1E2E3" d="M53.227,80.666c0,0,1.986,13.845-14.407,11.229c0,0,17.276,10.228,21.818-7.073
		C60.638,84.821,59.31,77.678,53.227,80.666"/>
	<path fill="#E1E2E3" d="M60.353,85.315c-0.919,1.026-3.171,0.512-5.032-1.151c-1.861-1.665-2.624-3.844-1.705-4.873
		c0.919-1.027,3.172-0.513,5.032,1.149C60.508,82.104,61.271,84.286,60.353,85.315"/>
	<path fill="#E1E2E3" d="M104.133,80.666c0,0-1.985,13.845,14.407,11.229c0,0-17.276,10.228-21.817-7.073
		C96.723,84.821,98.05,77.678,104.133,80.666"/>
	<path fill="#E1E2E3" d="M97.008,85.315c0.919,1.026,3.172,0.512,5.031-1.151c1.861-1.665,2.624-3.844,1.705-4.873
		c-0.92-1.027-3.172-0.513-5.032,1.149C96.853,82.104,96.089,84.286,97.008,85.315"/>
	<g opacity="0.1">
		<g>
			<defs>
				<rect id="SVGID_5_" x="0" width="78.678" height="131.521"/>
			</defs>
			<clipPath id="SVGID_6_">
				<use xlink:href="#SVGID_5_"  overflow="visible"/>
			</clipPath>
			<path clip-path="url(#SVGID_6_)" d="M78.679,0.008C78.63,0.005,78.58,0.001,78.53,0C65.803,0.485,53.445,5.471,44.176,13.393
				C40.65,5.028,34.933-0.281,24.722,0.029C11.745,0.37,2.524,16.08,0.476,27.349c-2.732,14.343,6.83,22.198,15.367,32.101
				c7.514,9.221,6.489,17.759,9.221,28.346c2.049,7.854,8.88,12.635,17.075,10.929c1.242-0.244,2.31-0.599,3.237-1.04
				c1.151,13.704,5.81,25.715,12.555,33.837h1.902h2.284h2.916h2.284h3.851c-0.373-1.436-0.583-3.001-0.583-4.643
				c0-6.854,3.545-8.519,7.945-8.519c0.05,0,0.101,0.003,0.149,0.003V0.008z"/>
		</g>
	</g>
	<path fill="#93A3C7" d="M123.074,115.799c0-0.185,0.017-0.366,0.033-0.549c-0.842-0.041-1.701-0.064-2.59-0.166
		c-1.084-0.177-2.199-0.235-3.333-0.536c-0.562-0.124-1.135-0.254-1.715-0.382c-0.566-0.176-1.144-0.353-1.729-0.532
		c-1.168-0.312-2.303-0.863-3.465-1.306c-0.56-0.281-1.127-0.563-1.699-0.849c-0.573-0.266-1.128-0.582-1.666-0.934
		c-2.221-1.269-4.248-2.935-6.042-4.742c-0.427-0.468-0.901-0.927-1.283-1.384l-1.008-1.335l-0.263-0.335l-0.324-0.476l-0.648-0.953
		l-0.65-0.954l-0.042-0.059l-0.019-0.031c0.398,0.462,0.102,0.112,0.188,0.208l-0.061-0.11l-0.118-0.219l-0.236-0.439
		c-1.311-2.292-2.316-4.754-3.149-7.206c-0.853-2.442-1.415-4.968-1.866-7.408c-0.45-2.445-0.68-4.876-0.845-7.17
		c-0.133-2.311-0.168-4.503-0.118-6.542c0.047-2.037,0.166-3.91,0.302-5.567c0.076-0.83,0.152-1.606,0.22-2.323
		c0.089-0.679,0.17-1.3,0.246-1.861c0.34-2.566,0.533-4.034,0.533-4.034h-0.013c0.068-0.292,0.114-0.587,0.114-0.889
		c0-3.961-5.897-11.902-13.297-11.902s-13.499,7.94-13.499,11.902c0,0,0.022,0.239,0.059,0.618c0.005,0.039,0.004,0.079,0.011,0.118
		c0.093,0.954,0.28,2.718,0.547,4.6c0.115,0.773,0.241,1.628,0.38,2.559c0.163,0.888,0.338,1.849,0.526,2.877
		c0.401,2.049,0.898,4.355,1.544,6.858c0.641,2.502,1.448,5.198,2.425,8.015c1.015,2.812,2.166,5.749,3.617,8.701
		c1.456,2.946,3.086,5.934,5.079,8.787c1.971,2.852,4.165,5.626,6.676,8.095l1.118,1.154l0.883,0.744l0.882,0.742l0.44,0.372
		l0.571,0.443l2.341,1.744c0.771,0.52,1.528,0.933,2.285,1.39c3.056,1.72,6.188,3.044,9.312,3.836
		c0.768,0.232,1.538,0.423,2.313,0.555c0.77,0.147,1.525,0.306,2.274,0.43c1.524,0.151,2.976,0.396,4.418,0.388
		c0.71,0.017,1.414,0.033,2.106,0.05c0.689-0.035,1.367-0.072,2.036-0.105c1.324-0.027,2.6-0.294,3.803-0.434
		c1.08-0.177,2.096-0.436,3.067-0.653C123.317,117.741,123.074,116.795,123.074,115.799"/>
	<path fill="#70879E" d="M71.85,62.269c0,0,7.639-6.105,14.256,0.512C86.106,62.781,79.705,58.769,71.85,62.269"/>
	<path fill="#70879E" d="M71.953,70.171c0,0,7.135-6.689,14.253-0.616C86.206,69.555,79.507,66.062,71.953,70.171"/>
	<path fill="#70879E" d="M72.96,78.361c0,0,5.842-6.072,12.237-1.161C85.198,77.2,79.279,74.487,72.96,78.361"/>
	<path fill="#70879E" d="M75.095,87.269c0,0,4.862-6.82,11.863-2.921C86.958,84.348,80.745,82.542,75.095,87.269"/>
</g>
</svg>
