<?xml version="1.0" encoding="utf-8"?>
<!-- Generator: Adobe Illustrator 15.0.0, SVG Export Plug-In . SVG Version: 6.00 Build 0)  -->
<!DOCTYPE svg PUBLIC "-//W3C//DTD SVG 1.1//EN" "http://www.w3.org/Graphics/SVG/1.1/DTD/svg11.dtd">
<svg version="1.1" id="Layer_1" xmlns="http://www.w3.org/2000/svg" xmlns:xlink="http://www.w3.org/1999/xlink" x="0px" y="0px"
	 width="149.314px" height="131.403px" viewBox="0 0 149.314 131.403" enable-background="new 0 0 149.314 131.403"
	 xml:space="preserve">
<g>
	<path fill="#64441A" d="M92.178,116.282c14.771,8.064,34.615,9.977,46.518-4.047c10.414-12.27,9.803-33.869-5.219-42.076
		c-7.611-4.16-14.396,7.451-6.787,11.609c8.877,4.85,6.182,17.453,0.133,23.533c-7.24,7.275-20.146,3.58-27.857-0.629
		C91.35,100.517,84.563,112.128,92.178,116.282"/>
	<path fill="#4C3312" d="M102.418,131.403c3.885-6.754,6.182-15.033,6.182-23.988c0-22.723-14.738-41.146-32.919-41.146
		c-18.181,0-32.919,18.424-32.919,41.146c0,8.955,2.295,17.234,6.181,23.988H102.418z"/>
	<path fill="#F6BC96" d="M82.426,105.979c-3.887,2.443-5.059,7.574-2.617,11.463c2.445,3.889,7.576,5.059,11.465,2.615
		L82.426,105.979z"/>
	<path fill="#4F3613" d="M42.183,32.179c-0.215-10.537-9.83-18.883-21.479-18.645c-11.647,0.236-20.911,8.964-20.7,19.498
		C0.22,43.567,9.832,51.91,21.481,51.675C33.126,51.44,42.396,42.71,42.183,32.179"/>
	<path fill="#CF9F81" d="M34.44,32.335c-0.136-6.67-6.221-11.951-13.593-11.799c-7.37,0.148-13.235,5.672-13.101,12.338
		c0.136,6.668,6.22,11.947,13.593,11.799C28.709,44.524,34.577,38.999,34.44,32.335"/>
	<path fill="#4F3613" d="M107.131,31.841c0.215-10.535,9.832-18.881,21.479-18.643c11.648,0.236,20.914,8.965,20.701,19.497
		c-0.215,10.534-9.826,18.879-21.479,18.644C116.188,51.104,106.92,42.374,107.131,31.841"/>
	<path fill="#CF9F81" d="M114.874,31.997c0.137-6.668,6.223-11.949,13.594-11.799c7.369,0.15,13.234,5.674,13.102,12.34
		c-0.137,6.666-6.221,11.947-13.594,11.799C120.606,44.188,114.737,38.663,114.874,31.997"/>
	<path fill="#64441A" d="M116.526,55.931c0,27.34-18.287,49.502-40.846,49.502c-22.557,0-40.844-22.162-40.844-49.502
		c0-27.338,18.287-49.5,40.844-49.5C98.239,6.431,116.526,28.593,116.526,55.931"/>
	<path fill="#64441A" d="M75.678,0.001c30.172,0,54.629,19.188,54.629,42.86c0,23.673-24.457,42.864-54.629,42.864
		c-30.167,0-54.625-19.191-54.625-42.863S45.511,0.001,75.678,0.001"/>
	<path fill="#F6BC96" d="M70.577,40.993c0,11.645-9.439,21.082-21.083,21.082c-11.645,0-21.084-9.438-21.084-21.082
		c0-11.646,9.439-21.084,21.084-21.084C61.138,19.909,70.577,29.348,70.577,40.993"/>
	<path fill="#F6BC96" d="M122.038,40.993c0,11.645-9.439,21.082-21.084,21.082c-11.646,0-21.086-9.438-21.086-21.082
		c0-11.646,9.439-21.084,21.086-21.084C112.598,19.909,122.038,29.348,122.038,40.993"/>
	<path fill="#F6BC96" d="M101.061,66.269c0,19.402-11.363,35.131-25.381,35.131c-14.018,0-25.381-15.729-25.381-35.131
		c0-19.4,11.363-35.129,25.381-35.129C89.698,31.14,101.061,46.868,101.061,66.269"/>
	<path fill="#221F1F" d="M72.482,53.499c0,1.383-1.119,2.502-2.501,2.502s-2.502-1.119-2.502-2.502c0-1.381,1.12-2.5,2.502-2.5
		S72.482,52.118,72.482,53.499"/>
	<path fill="#221F1F" d="M82.963,53.499c0,1.383-1.119,2.502-2.5,2.502c-1.383,0-2.502-1.119-2.502-2.502
		c0-1.381,1.119-2.5,2.502-2.5C81.844,50.999,82.963,52.118,82.963,53.499"/>
	<path fill="#F6BC96" d="M100.12,105.979c3.887,2.443,5.059,7.574,2.617,11.463c-2.445,3.889-7.576,5.059-11.465,2.615
		L100.12,105.979z"/>
	<path fill="#64441A" d="M70.577,85.726h7.958C78.536,85.726,74.719,90.446,70.577,85.726"/>
	<path fill="#CF9F81" d="M58.177,40.12c0,6.047-4.901,10.947-10.947,10.947c-6.045,0-10.945-4.9-10.945-10.947
		c0-6.045,4.9-10.944,10.945-10.944C53.276,29.176,58.177,34.075,58.177,40.12"/>
	<path fill="#CF9F81" d="M113.567,40.12c0,6.047-4.9,10.947-10.947,10.947c-6.045,0-10.945-4.9-10.945-10.947
		c0-6.045,4.9-10.944,10.945-10.944C108.667,29.176,113.567,34.075,113.567,40.12"/>
	<path fill="#221F1F" d="M109.409,40.278c0,3.748-3.039,6.789-6.789,6.789s-6.789-3.041-6.789-6.789c0-3.75,3.039-6.791,6.789-6.791
		S109.409,36.528,109.409,40.278"/>
	<path fill="#221F1F" d="M54.021,40.278c0,3.748-3.04,6.789-6.79,6.789s-6.789-3.041-6.789-6.789c0-3.75,3.039-6.791,6.789-6.791
		S54.021,36.528,54.021,40.278"/>
	<path fill="#FFFFFF" d="M106.217,40.12c0,0.867-0.703,1.568-1.566,1.568c-0.867,0-1.568-0.701-1.568-1.568
		c0-0.865,0.701-1.566,1.568-1.566C105.514,38.554,106.217,39.255,106.217,40.12"/>
	<path fill="#FFFFFF" d="M51.061,40.12c0,0.867-0.703,1.568-1.568,1.568c-0.866,0-1.568-0.701-1.568-1.568
		c0-0.865,0.702-1.566,1.568-1.566C50.358,38.554,51.061,39.255,51.061,40.12"/>
	<g opacity="0.3">
		<g>
			<defs>
				<rect id="SVGID_1_" width="74.657" height="131.38"/>
			</defs>
			<clipPath id="SVGID_2_">
				<use xlink:href="#SVGID_1_"  overflow="visible"/>
			</clipPath>
			<path clip-path="url(#SVGID_2_)" d="M74.657,0.001C57.55,0.249,42.369,6.659,32.57,16.532c-3.41-1.99-7.495-3.111-11.866-3.021
				c-11.647,0.235-20.911,8.964-20.7,19.497C0.219,43.544,9.832,51.888,21.482,51.65c0.242-0.004,0.477-0.034,0.717-0.047
				c2.247,8.481,7.691,16.038,15.293,21.874c1.916,6.111,4.801,11.641,8.429,16.316c-2.023,5.336-3.159,11.303-3.159,17.6
				c0,8.953,2.295,17.232,6.182,23.986h25.713V0.001z"/>
		</g>
	</g>
</g>
</svg>
