<?xml version="1.0" encoding="utf-8"?>
<!-- Generator: Adobe Illustrator 15.0.0, SVG Export Plug-In . SVG Version: 6.00 Build 0)  -->
<!DOCTYPE svg PUBLIC "-//W3C//DTD SVG 1.1//EN" "http://www.w3.org/Graphics/SVG/1.1/DTD/svg11.dtd">
<svg version="1.1" id="Layer_1" xmlns="http://www.w3.org/2000/svg" xmlns:xlink="http://www.w3.org/1999/xlink" x="0px" y="0px"
	 width="168.272px" height="131.486px" viewBox="0 0 168.272 131.486" enable-background="new 0 0 168.272 131.486"
	 xml:space="preserve">
<g>
	<path fill="#E39D9B" d="M137.772,73.583c0,29.047-23.896,52.594-53.376,52.594c-29.479,0-53.376-23.547-53.376-52.594
		c0-29.047,23.898-52.594,53.376-52.594C113.875,20.989,137.772,44.536,137.772,73.583"/>
	<g opacity="0.1">
		<g>
			<defs>
				<rect id="SVGID_1_" x="34.177" y="35.233" width="100.192" height="70.427"/>
			</defs>
			<clipPath id="SVGID_2_">
				<use xlink:href="#SVGID_1_"  overflow="visible"/>
			</clipPath>
			<path clip-path="url(#SVGID_2_)" d="M134.368,70.446c0,19.447-21.062,35.214-50.216,35.214
				c-29.158,0-49.975-16.187-49.975-35.632c0-19.449,20.816-34.795,49.975-34.795C113.305,35.233,134.368,50.997,134.368,70.446"/>
		</g>
	</g>
	<path fill="#E2B0A3" d="M128.153,13.384c8.531-0.744,16.09-0.035,23.011,5.475c6.974,5.554,12.031,13.399,17.108,20.612
		c-9.706,4.511-21.591,11.172-32.725,9.254c-9.465-1.632-14.532-10.248-18.999-17.869c5.816-1.647-0.645-11.98,2.943-16.026
		L128.153,13.384z"/>
	<path fill="#BF8584" d="M128.353,20.479c5.142-0.447,9.694-0.022,13.865,3.3c4.198,3.345,7.246,8.071,10.306,12.416
		c-5.849,2.718-13.007,6.731-19.714,5.576c-5.704-0.984-8.757-6.173-11.446-10.766c3.506-0.991,4.201-7.893,6.363-10.329"/>
	<path fill="#DF9999" d="M40.151,13.384c-8.533-0.744-16.092-0.035-23.012,5.475C10.167,24.413,5.109,32.259,0.03,39.472
		c9.708,4.511,21.591,11.172,32.724,9.254c9.469-1.632,14.534-10.248,18.999-17.869c-5.817-1.647,0.646-11.98-2.943-16.026
		L40.151,13.384z"/>
	<path fill="#BF8584" d="M39.951,20.479c-5.144-0.447-9.697-0.022-13.866,3.3c-4.2,3.345-7.246,8.071-10.307,12.416
		c5.848,2.718,13.007,6.731,19.715,5.576c5.702-0.984,8.755-6.173,11.445-10.766c-3.505-0.991-4.202-7.893-6.365-10.329"/>
	<path fill="#E79E9E" d="M137.475,46.684c0,25.783-23.766,46.684-53.079,46.684c-29.314,0-53.078-20.901-53.078-46.684
		S55.082,0,84.396,0C113.709,0,137.475,20.901,137.475,46.684"/>
	<g opacity="0.2">
		<g>
			<defs>
				<rect id="SVGID_3_" x="111.719" y="31.265" width="17.337" height="17.337"/>
			</defs>
			<clipPath id="SVGID_4_">
				<use xlink:href="#SVGID_3_"  overflow="visible"/>
			</clipPath>
			<path clip-path="url(#SVGID_4_)" d="M129.056,39.933c0,4.787-3.882,8.669-8.669,8.669s-8.668-3.882-8.668-8.669
				c0-4.785,3.881-8.668,8.668-8.668S129.056,35.148,129.056,39.933"/>
		</g>
	</g>
	<path fill="#221F1F" d="M125.46,39.934c0,2.495-2.021,4.518-4.515,4.518c-2.497,0-4.516-2.023-4.516-4.518s2.019-4.518,4.516-4.518
		C123.44,35.416,125.46,37.439,125.46,39.934"/>
	<path fill="#FFFFFF" d="M123.338,39.829c0,0.578-0.469,1.044-1.043,1.044c-0.577,0-1.042-0.467-1.042-1.044
		c0-0.575,0.465-1.041,1.042-1.041C122.87,38.788,123.338,39.253,123.338,39.829"/>
	<g opacity="0.2">
		<g>
			<defs>
				<rect id="SVGID_5_" x="36.576" y="31.265" width="17.337" height="17.337"/>
			</defs>
			<clipPath id="SVGID_6_">
				<use xlink:href="#SVGID_5_"  overflow="visible"/>
			</clipPath>
			<path clip-path="url(#SVGID_6_)" d="M53.914,39.933c0,4.787-3.881,8.669-8.67,8.669c-4.787,0-8.667-3.882-8.667-8.669
				c0-4.785,3.881-8.668,8.667-8.668C50.033,31.265,53.914,35.148,53.914,39.933"/>
		</g>
	</g>
	<path fill="#221F1F" d="M50.317,39.934c0,2.495-2.021,4.518-4.515,4.518c-2.497,0-4.517-2.023-4.517-4.518s2.02-4.518,4.517-4.518
		C48.297,35.416,50.317,37.439,50.317,39.934"/>
	<path fill="#FFFFFF" d="M48.196,39.829c0,0.578-0.468,1.044-1.043,1.044c-0.577,0-1.042-0.467-1.042-1.044
		c0-0.575,0.465-1.041,1.042-1.041C47.728,38.788,48.196,39.253,48.196,39.829"/>
	<path fill="#F7B7AD" d="M128.324,70.448c0,15.954-19.669,28.892-43.927,28.892c-24.262,0-43.926-12.938-43.926-28.892
		c0-15.959,19.665-28.896,43.926-28.896C108.655,41.552,128.324,54.489,128.324,70.448"/>
	<path fill="#CD8E8D" d="M73.987,71.866c0,5.105-4.141,9.246-9.247,9.246c-5.108,0-9.246-4.141-9.246-9.246
		c0-5.107,4.138-9.248,9.246-9.248C69.846,62.618,73.987,66.759,73.987,71.866"/>
	<path fill="#CD8E8D" d="M111.719,71.866c0,5.105-4.141,9.246-9.246,9.246c-5.107,0-9.249-4.141-9.249-9.246
		c0-5.107,4.142-9.248,9.249-9.248C107.579,62.618,111.719,66.759,111.719,71.866"/>
	<path fill="#E39D9B" d="M68.522,114.583c0,5.797-3.595,10.496-8.031,10.496c-4.434,0-8.028-4.699-8.028-10.496
		s3.594-10.496,8.028-10.496C64.927,104.087,68.522,108.786,68.522,114.583"/>
	<path fill="#E39D9B" d="M117.953,114.583c0,5.797-3.86,10.496-8.622,10.496c-4.765,0-8.627-4.699-8.627-10.496
		s3.862-10.496,8.627-10.496C114.092,104.087,117.953,108.786,117.953,114.583"/>
	<path d="M75.894,130.775c0-7.935-6.433-14.371-14.37-14.371c-7.936,0-14.371,6.437-14.371,14.371c0,0.239,0.024,0.473,0.034,0.709
		h9.04c0.087-2.859,2.418-5.155,5.297-5.155s5.21,2.296,5.298,5.155h9.034C75.868,131.248,75.894,131.015,75.894,130.775"/>
	<path d="M125.46,130.775c0-7.935-6.433-14.371-14.369-14.371c-7.938,0-14.372,6.437-14.372,14.371c0,0.239,0.024,0.473,0.036,0.709
		h9.036c0.088-2.859,2.422-5.155,5.3-5.155c2.879,0,5.211,2.296,5.299,5.155h9.034C125.438,131.248,125.46,131.015,125.46,130.775"
		/>
	<g opacity="0.2">
		<g>
			<defs>
				<rect id="SVGID_7_" y="0.007" width="84.12" height="131.479"/>
			</defs>
			<clipPath id="SVGID_8_">
				<use xlink:href="#SVGID_7_"  overflow="visible"/>
			</clipPath>
			<path clip-path="url(#SVGID_8_)" d="M84.12,126.174V0.008c-14.958,0.06-28.444,5.565-38.051,14.374l-5.949-0.994
				c-8.533-0.745-16.092-0.037-23.011,5.476c-6.973,5.553-12.032,13.397-17.11,20.61c9.312,4.324,20.62,10.609,31.353,9.427
				c0.183,3.433,0.792,6.765,1.772,9.965c-1.38,4.673-2.135,9.609-2.135,14.72c0,17.271,8.45,32.598,21.498,42.186
				c0.101,1.164,0.351,2.266,0.718,3.282c-3.675,2.603-6.082,6.88-6.082,11.726c0,0.238,0.023,0.473,0.034,0.706h9.039
				c0.087-2.855,2.418-5.152,5.298-5.152c2.879,0,5.21,2.297,5.297,5.152h9.034c0.013-0.233,0.039-0.468,0.039-0.706
				c0-1.935-0.388-3.776-1.081-5.46C77.815,125.86,80.932,126.158,84.12,126.174"/>
		</g>
	</g>
</g>
</svg>
